<?xml version="1.0" encoding="UTF-8"?>
<svg id="Camada_1" xmlns="http://www.w3.org/2000/svg" version="1.1" viewBox="0 0 366.85 468.65">
  <!-- Generator: Adobe Illustrator 29.5.1, SVG Export Plug-In . SVG Version: 2.1.0 Build 141)  -->
  <defs>
    <style>
      .st0 {
        stroke: #e6953a;
        stroke-linecap: round;
        stroke-linejoin: round;
      }

      .st0, .st1 {
        fill: none;
        stroke-width: 10px;
      }

      .st2 {
        fill: #1d1d1b;
      }

      .st3 {
        fill-rule: evenodd;
      }

      .st1 {
        stroke: #1f2628;
        stroke-miterlimit: 10;
      }

      .st4 {
        fill: #e6953a;
      }
    </style>
  </defs>
  <rect class="st1" x="124.68" y="5" width="237.17" height="204.23" rx="18.13" ry="18.13"/>
  <g>
    <path class="st0" d="M54.87,342.5c-32.43-21.04-49.87-57.58-49.87-99.12,0-62.1,47.94-113.02,108.84-117.74"/>
    <polygon class="st4" points="86.89 171.98 79.1 165.69 110.14 127.38 69.66 99.22 75.39 91.01 124.68 125.31 86.89 171.98"/>
  </g>
  <rect class="st1" x="56.81" y="259.42" width="237.17" height="204.23" rx="18.13" ry="18.13"/>
  <g>
    <path class="st2" d="M137.27,401.33c0,7.52,1.9,12.89,5.71,16.09s7.98,5.07,12.52,5.61v8.57c-8.69-.88-15.88-3.43-21.57-7.65s-8.53-11.17-8.53-20.84v-15.09c0-5.32-.83-9.52-2.49-12.6-3.03-5.61-8.84-8.89-17.43-9.81v-8.42c8.64-1.02,14.45-4.22,17.43-9.58,1.66-2.97,2.49-7.24,2.49-12.8v-11.93c0-9.17,1.99-16.44,5.97-21.8,3.98-5.37,12.02-8.56,24.13-9.58v8.35c-7.86.68-13.18,4.15-15.97,10.39-1.51,3.42-2.27,8.15-2.27,14.2v8.2c0,7.32-.9,12.93-2.71,16.84-3.27,7.08-9.62,11.05-19.04,11.93,9.38.83,15.72,4.93,19.04,12.31,1.81,4.06,2.71,9.58,2.71,16.56v11.07-.02Z"/>
    <path class="st2" d="M177.85,388.21c0,5.02,1.27,8.59,3.81,10.72s5.32,3.38,8.35,3.74v5.71c-5.79-.59-10.59-2.29-14.38-5.1-3.79-2.82-5.69-7.45-5.69-13.89v-10.06c0-3.55-.55-6.35-1.66-8.4-2.02-3.74-5.89-5.92-11.62-6.54v-5.62c5.76-.68,9.64-2.81,11.62-6.39,1.11-1.98,1.66-4.83,1.66-8.54v-7.95c0-6.11,1.33-10.96,3.98-14.53,2.65-3.58,8.02-5.71,16.09-6.39v5.57c-5.24.46-8.79,2.77-10.64,6.93-1.01,2.28-1.51,5.43-1.51,9.47v5.47c0,4.88-.6,8.62-1.81,11.22-2.18,4.72-6.41,7.37-12.7,7.95,6.25.55,10.48,3.29,12.7,8.21,1.2,2.7,1.81,6.39,1.81,11.04v7.38h0Z"/>
    <path class="st2" d="M216.23,349.51c-1.81-3.91-2.71-9.55-2.71-16.91v-8.19c0-6.44-.76-11.31-2.27-14.63-2.74-5.95-8.06-9.27-15.97-9.95v-8.35c12.6,1.03,21.14,4.93,25.63,11.71,2.93,4.34,4.39,10.9,4.39,19.68v11.92c0,5.46.83,9.7,2.49,12.73,3.03,5.51,8.86,8.73,17.5,9.66v8.42c-8.59.88-14.43,4.17-17.5,9.89-1.66,3.13-2.49,7.3-2.49,12.52v15.09c0,9.86-2.85,16.85-8.53,20.95-5.69,4.1-12.85,6.62-21.5,7.54v-8.57c5.22-.68,9.57-2.77,13.04-6.26s5.2-8.63,5.2-15.42v-11.06c0-7.03.9-12.55,2.71-16.56,3.32-7.39,9.64-11.5,18.97-12.33-9.38-.88-15.7-4.84-18.97-11.88h.01Z"/>
  </g>
  <path class="st3" d="M223.38,41.02c2.93-7.33,12.59-11.87,20.08-6.16,12.48,9.5,28.13,23.48,40.72,39.46,12.48,15.84,22.56,34.43,22.56,53.04,0,16.64-5.15,29-12.61,37.85-7.39,8.77-16.77,13.79-24.88,16.32-4.16,1.3-7.97-.61-9.82-3.72-1.74-2.93-1.75-6.82.43-9.95,6.22-8.94,12.79-21.79,12.79-33.25,0-5.68-2.45-12.41-6.41-19.32-2.98-5.19-6.62-10.17-10.17-14.44-.74,10.18-2.95,22.97-9.81,33.54-3.12,4.8-10.05,5.34-13.74.68-1.15-1.46-2.29-3.06-3.33-4.52-.06-.09-.13-.18-.19-.26-.57-.8-1.11-1.56-1.63-2.27-4.97,4.95-9.61,10.88-9.61,17.48,0,5.83,2.91,13.8,6.35,20.56,1.86,3.65,1.08,7.7-1.16,10.35-2.38,2.82-6.72,4.27-10.84,1.89-14.1-8.16-32.32-25.6-32.32-50.93,0-6.87,2.33-13.98,5.59-20.92,3.28-6.99,7.73-14.27,12.4-21.54,1.62-2.52,3.26-5.04,4.9-7.55,8.01-12.28,15.96-24.45,20.71-36.33ZM235.27,43.34c-.74.26-1.44.88-1.78,1.73-5.19,12.98-13.87,26.28-21.89,38.54-1.59,2.44-3.16,4.84-4.67,7.18-4.64,7.22-8.75,13.99-11.71,20.29-2.98,6.34-4.56,11.75-4.56,16.29,0,16.65,10.2,29.57,20.92,37.57-2.57-6.1-4.71-13.14-4.71-19.43,0-12.55,9.43-22.03,14.69-27.02,3.41-3.23,9.3-3.52,12.74.72,1.24,1.53,2.46,3.23,3.56,4.79l.13.18c.31.44.61.86.91,1.27,4.85-9.24,6.21-20.52,6.55-29.8.14-3.82,2.51-6.84,5.61-8.1,3.17-1.29,7.11-.72,9.82,2.28l-4.04,3.65,4.04-3.65c4.83,5.35,10.4,12.42,14.8,20.08,4.33,7.56,7.85,16.26,7.85,24.73,0,12.28-5.57,24.74-11.2,34.01,4.73-2.32,9.5-5.7,13.48-10.42,5.71-6.78,10.05-16.62,10.05-30.84s-8.25-31.1-20.23-46.31c-11.86-15.06-26.78-28.41-38.76-37.54-.4-.3-.91-.42-1.6-.18Z"/>
</svg>