<svg xmlns="http://www.w3.org/2000/svg" id="Camada_1" data-name="Camada 1" viewBox="406.94 714.62 366.85 468.65">
  <defs>
    <style>
      .cls-1 {
        fill: #1d1d1b;
      }

      .cls-2 {
        stroke: #e6953a;
        stroke-linecap: round;
        stroke-linejoin: round;
      }

      .cls-2, .cls-3 {
        fill: none;
        stroke-width: 10px;
      }

      .cls-3 {
        stroke: #1f2628;
        stroke-miterlimit: 10;
      }

      .cls-4 {
        fill: #e6953a;
      }
    </style>
  </defs>
  <rect class="cls-3" x="531.62" y="719.62" width="237.17" height="204.23" rx="18.13" ry="18.13"/>
  <g>
    <path class="cls-2" d="M465.81,1057.12c-32.43-21.04-53.87-57.58-53.87-99.12,0-62.1,47.94-113.02,108.84-117.74"/>
    <polygon class="cls-4" points="493.83 886.6 486.04 880.31 517.08 842 476.6 813.84 482.33 805.63 531.62 839.93 493.83 886.6"/>
  </g>
  <rect class="cls-3" x="463.75" y="974.04" width="237.17" height="204.23" rx="18.13" ry="18.13"/>
  <g>
    <path class="cls-1" d="M544.21,1115.95c0,7.52,1.9,12.89,5.71,16.09,3.81,3.2,7.98,5.07,12.52,5.61v8.57c-8.69-.88-15.88-3.43-21.57-7.65-5.69-4.22-8.53-11.17-8.53-20.84v-15.09c0-5.32-.83-9.52-2.49-12.6-3.03-5.61-8.84-8.89-17.43-9.81v-8.42c8.64-1.02,14.45-4.22,17.43-9.58,1.66-2.97,2.49-7.24,2.49-12.8v-11.93c0-9.17,1.99-16.44,5.97-21.8,3.98-5.37,12.02-8.56,24.13-9.58v8.35c-7.86.68-13.18,4.15-15.97,10.39-1.51,3.42-2.27,8.15-2.27,14.2v8.2c0,7.32-.9,12.93-2.71,16.84-3.27,7.08-9.62,11.05-19.04,11.93,9.38.83,15.72,4.93,19.04,12.31,1.81,4.06,2.71,9.58,2.71,16.56v11.07Z"/>
    <path class="cls-1" d="M584.79,1102.83c0,5.02,1.27,8.59,3.81,10.72,2.54,2.13,5.32,3.38,8.35,3.74v5.71c-5.79-.59-10.59-2.29-14.38-5.1-3.79-2.82-5.69-7.45-5.69-13.89v-10.06c0-3.55-.55-6.35-1.66-8.4-2.02-3.74-5.89-5.92-11.62-6.54v-5.62c5.76-.68,9.64-2.81,11.62-6.39,1.11-1.98,1.66-4.83,1.66-8.54v-7.95c0-6.11,1.33-10.96,3.98-14.53,2.65-3.58,8.02-5.71,16.09-6.39v5.57c-5.24.46-8.79,2.77-10.64,6.93-1.01,2.28-1.51,5.43-1.51,9.47v5.47c0,4.88-.6,8.62-1.81,11.22-2.18,4.72-6.41,7.37-12.7,7.95,6.25.55,10.48,3.29,12.7,8.21,1.2,2.7,1.81,6.39,1.81,11.04v7.38Z"/>
    <path class="cls-1" d="M623.17,1064.13c-1.81-3.91-2.71-9.55-2.71-16.91v-8.19c0-6.44-.76-11.31-2.27-14.63-2.74-5.95-8.06-9.27-15.97-9.95v-8.35c12.6,1.03,21.14,4.93,25.63,11.71,2.93,4.34,4.39,10.9,4.39,19.68v11.92c0,5.46.83,9.7,2.49,12.73,3.03,5.51,8.86,8.73,17.5,9.66v8.42c-8.59.88-14.43,4.17-17.5,9.89-1.66,3.13-2.49,7.3-2.49,12.52v15.09c0,9.86-2.85,16.85-8.53,20.95-5.69,4.1-12.85,6.62-21.5,7.54v-8.57c5.22-.68,9.57-2.77,13.04-6.26,3.47-3.49,5.2-8.63,5.2-15.42v-11.06c0-7.03.9-12.55,2.71-16.56,3.32-7.39,9.64-11.5,18.97-12.33-9.38-.88-15.7-4.84-18.97-11.88Z"/>
  </g>
</svg>